<svg xmlns="http://www.w3.org/2000/svg" xmlns:xlink="http://www.w3.org/1999/xlink" width="400" zoomAndPan="magnify" viewBox="0 0 300 299.999988" height="400" preserveAspectRatio="xMidYMid meet" version="1.0"><rect x="-30" width="360" fill="#ffffff" y="-29.999999" height="359.999986" fill-opacity="1"/><rect x="-30" width="360" fill="#ffffff" y="-29.999999" height="359.999986" fill-opacity="1"/><rect x="-30" width="360" fill="#ffffff" y="-29.999999" height="359.999986" fill-opacity="1"/><path fill="#ffffff" d="M 19.199219 19.199219 L 0.601562 19.199219 L 0.601562 0.601562 L 19.199219 0.601562 Z M 56.398438 0.601562 L 37.800781 0.601562 L 37.800781 19.199219 L 56.398438 19.199219 Z M 93.601562 0.601562 L 75 0.601562 L 75 19.199219 L 93.601562 19.199219 Z M 130.800781 0.601562 L 112.199219 0.601562 L 112.199219 19.199219 L 130.800781 19.199219 Z M 130.800781 37.800781 L 149.398438 37.800781 L 149.398438 19.199219 L 130.800781 19.199219 Z M 93.601562 37.800781 L 112.199219 37.800781 L 112.199219 19.199219 L 93.601562 19.199219 Z M 56.398438 37.800781 L 75 37.800781 L 75 19.199219 L 56.398438 19.199219 Z M 19.199219 37.800781 L 37.800781 37.800781 L 37.800781 19.199219 L 19.199219 19.199219 Z M 19.199219 37.800781 L 0.601562 37.800781 L 0.601562 56.398438 L 19.199219 56.398438 Z M 56.398438 37.800781 L 37.800781 37.800781 L 37.800781 56.398438 L 56.398438 56.398438 Z M 93.601562 37.800781 L 75 37.800781 L 75 56.398438 L 93.601562 56.398438 Z M 130.800781 37.800781 L 112.199219 37.800781 L 112.199219 56.398438 L 130.800781 56.398438 Z M 130.800781 75 L 149.398438 75 L 149.398438 56.398438 L 130.800781 56.398438 Z M 93.601562 75 L 112.199219 75 L 112.199219 56.398438 L 93.601562 56.398438 Z M 56.398438 75 L 75 75 L 75 56.398438 L 56.398438 56.398438 Z M 19.199219 75 L 37.800781 75 L 37.800781 56.398438 L 19.199219 56.398438 Z M 19.199219 75 L 0.601562 75 L 0.601562 93.601562 L 19.199219 93.601562 Z M 56.398438 75 L 37.800781 75 L 37.800781 93.601562 L 56.398438 93.601562 Z M 93.601562 75 L 75 75 L 75 93.601562 L 93.601562 93.601562 Z M 130.800781 75 L 112.199219 75 L 112.199219 93.601562 L 130.800781 93.601562 Z M 130.800781 112.199219 L 149.398438 112.199219 L 149.398438 93.601562 L 130.800781 93.601562 Z M 93.601562 112.199219 L 112.199219 112.199219 L 112.199219 93.601562 L 93.601562 93.601562 Z M 56.398438 112.199219 L 75 112.199219 L 75 93.601562 L 56.398438 93.601562 Z M 19.199219 112.199219 L 37.800781 112.199219 L 37.800781 93.601562 L 19.199219 93.601562 Z M 19.199219 112.199219 L 0.601562 112.199219 L 0.601562 130.800781 L 19.199219 130.800781 Z M 56.398438 112.199219 L 37.800781 112.199219 L 37.800781 130.800781 L 56.398438 130.800781 Z M 93.601562 112.199219 L 75 112.199219 L 75 130.800781 L 93.601562 130.800781 Z M 130.800781 112.199219 L 112.199219 112.199219 L 112.199219 130.800781 L 130.800781 130.800781 Z M 130.800781 149.398438 L 149.398438 149.398438 L 149.398438 130.800781 L 130.800781 130.800781 Z M 93.601562 149.398438 L 112.199219 149.398438 L 112.199219 130.800781 L 93.601562 130.800781 Z M 56.382812 149.398438 L 74.980469 149.398438 L 74.980469 130.800781 L 56.382812 130.800781 Z M 19.199219 149.398438 L 37.800781 149.398438 L 37.800781 130.800781 L 19.199219 130.800781 Z M 19.199219 149.398438 " fill-opacity="1" fill-rule="nonzero"/><path fill="#010101" d="M 0 0 L 0 150 L 150 150 L 150 0 Z M 149.398438 37.800781 L 130.800781 37.800781 L 130.800781 56.398438 L 149.398438 56.398438 L 149.398438 75 L 130.800781 75 L 130.800781 93.601562 L 149.398438 93.601562 L 149.398438 112.199219 L 130.800781 112.199219 L 130.800781 130.800781 L 149.398438 130.800781 L 149.398438 149.398438 L 130.800781 149.398438 L 130.800781 130.800781 L 112.199219 130.800781 L 112.199219 149.398438 L 93.601562 149.398438 L 93.601562 130.800781 L 75 130.800781 L 75 149.398438 L 56.398438 149.398438 L 56.398438 130.800781 L 37.800781 130.800781 L 37.800781 149.398438 L 19.199219 149.398438 L 19.199219 130.800781 L 0.601562 130.800781 L 0.601562 112.199219 L 19.199219 112.199219 L 19.199219 93.601562 L 0.601562 93.601562 L 0.601562 75 L 19.199219 75 L 19.199219 56.398438 L 0.601562 56.398438 L 0.601562 37.800781 L 19.199219 37.800781 L 19.199219 19.199219 L 0.601562 19.199219 L 0.601562 0.601562 L 19.199219 0.601562 L 19.199219 19.199219 L 37.800781 19.199219 L 37.800781 0.601562 L 56.398438 0.601562 L 56.398438 19.199219 L 75 19.199219 L 75 0.601562 L 93.601562 0.601562 L 93.601562 19.199219 L 112.199219 19.199219 L 112.199219 0.601562 L 130.800781 0.601562 L 130.800781 19.199219 L 149.398438 19.199219 Z M 130.800781 19.199219 L 130.800781 37.800781 L 112.199219 37.800781 L 112.199219 19.199219 Z M 75 37.800781 L 75 19.199219 L 93.601562 19.199219 L 93.601562 37.800781 Z M 37.800781 37.800781 L 37.800781 19.199219 L 56.398438 19.199219 L 56.398438 37.800781 Z M 37.800781 56.398438 L 19.199219 56.398438 L 19.199219 37.800781 L 37.800781 37.800781 Z M 56.398438 56.398438 L 56.398438 37.800781 L 75 37.800781 L 75 56.398438 Z M 93.601562 37.800781 L 112.199219 37.800781 L 112.199219 56.398438 L 93.601562 56.398438 Z M 112.199219 56.398438 L 130.800781 56.398438 L 130.800781 75 L 112.199219 75 Z M 75 56.398438 L 93.601562 56.398438 L 93.601562 75 L 75 75 Z M 56.398438 75 L 37.800781 75 L 37.800781 56.398438 L 56.398438 56.398438 Z M 37.800781 93.601562 L 19.199219 93.601562 L 19.199219 75 L 37.800781 75 Z M 75 75 L 75 93.601562 L 56.398438 93.601562 L 56.398438 75 Z M 93.601562 75 L 112.199219 75 L 112.199219 93.601562 L 93.601562 93.601562 Z M 112.199219 93.601562 L 130.800781 93.601562 L 130.800781 112.199219 L 112.199219 112.199219 Z M 93.601562 93.601562 L 93.601562 112.199219 L 75 112.199219 L 75 93.601562 Z M 56.398438 93.601562 L 56.398438 112.199219 L 37.800781 112.199219 L 37.800781 93.601562 Z M 37.800781 112.199219 L 37.800781 130.800781 L 19.199219 130.800781 L 19.199219 112.199219 Z M 75 112.199219 L 75 130.800781 L 56.398438 130.800781 L 56.398438 112.199219 Z M 112.199219 112.199219 L 112.199219 130.800781 L 93.601562 130.800781 L 93.601562 112.199219 Z M 112.199219 112.199219 " fill-opacity="1" fill-rule="nonzero"/></svg>