<svg xmlns="http://www.w3.org/2000/svg" xmlns:xlink="http://www.w3.org/1999/xlink" width="300" zoomAndPan="magnify" viewBox="0 0 224.87999 225" height="300" preserveAspectRatio="xMidYMid meet" version="1.0"><defs><clipPath id="a181a97e4b"><path d="M 0 0.0585938 L 224.761719 0.0585938 L 224.761719 224.9375 L 0 224.9375 Z M 0 0.0585938 " clip-rule="nonzero"/></clipPath><clipPath id="2923e30f9c"><path d="M 0 0.0585938 L 224 0.0585938 L 224 224.9375 L 0 224.9375 Z M 0 0.0585938 " clip-rule="nonzero"/></clipPath><clipPath id="92abacceea"><path d="M 0 0.0585938 L 224.761719 0.0585938 L 224.761719 224.9375 L 0 224.9375 Z M 0 0.0585938 " clip-rule="nonzero"/></clipPath></defs><g clip-path="url(#a181a97e4b)"><path fill="#ffffff" d="M 0 0.0585938 L 224.878906 0.0585938 L 224.878906 232.4375 L 0 232.4375 Z M 0 0.0585938 " fill-opacity="1" fill-rule="nonzero"/><path fill="#ffffff" d="M 0 0.0585938 L 224.878906 0.0585938 L 224.878906 224.941406 L 0 224.941406 Z M 0 0.0585938 " fill-opacity="1" fill-rule="nonzero"/></g><g clip-path="url(#2923e30f9c)"><path fill="#ffffff" d="M 28.785156 28.84375 L 0.898438 28.84375 L 0.898438 0.960938 L 28.785156 0.960938 Z M 84.554688 0.960938 L 56.667969 0.960938 L 56.667969 28.84375 L 84.554688 28.84375 Z M 140.324219 0.960938 L 112.441406 0.960938 L 112.441406 28.84375 L 140.324219 28.84375 Z M 196.09375 0.960938 L 168.210938 0.960938 L 168.210938 28.84375 L 196.09375 28.84375 Z M 196.09375 56.730469 L 223.980469 56.730469 L 223.980469 28.84375 L 196.09375 28.84375 Z M 140.324219 56.730469 L 168.210938 56.730469 L 168.210938 28.84375 L 140.324219 28.84375 Z M 84.554688 56.730469 L 112.441406 56.730469 L 112.441406 28.84375 L 84.554688 28.84375 Z M 28.785156 56.730469 L 56.667969 56.730469 L 56.667969 28.84375 L 28.785156 28.84375 Z M 28.785156 56.730469 L 0.898438 56.730469 L 0.898438 84.613281 L 28.785156 84.613281 Z M 84.554688 56.730469 L 56.667969 56.730469 L 56.667969 84.613281 L 84.554688 84.613281 Z M 140.324219 56.730469 L 112.441406 56.730469 L 112.441406 84.613281 L 140.324219 84.613281 Z M 196.09375 56.730469 L 168.210938 56.730469 L 168.210938 84.613281 L 196.09375 84.613281 Z M 196.09375 112.5 L 223.980469 112.5 L 223.980469 84.613281 L 196.09375 84.613281 Z M 140.324219 112.5 L 168.210938 112.5 L 168.210938 84.613281 L 140.324219 84.613281 Z M 84.554688 112.5 L 112.441406 112.5 L 112.441406 84.613281 L 84.554688 84.613281 Z M 28.785156 112.5 L 56.667969 112.5 L 56.667969 84.613281 L 28.785156 84.613281 Z M 28.785156 112.5 L 0.898438 112.5 L 0.898438 140.386719 L 28.785156 140.386719 Z M 84.554688 112.5 L 56.667969 112.5 L 56.667969 140.386719 L 84.554688 140.386719 Z M 140.324219 112.5 L 112.441406 112.5 L 112.441406 140.386719 L 140.324219 140.386719 Z M 196.09375 112.5 L 168.210938 112.5 L 168.210938 140.386719 L 196.09375 140.386719 Z M 196.09375 168.269531 L 223.980469 168.269531 L 223.980469 140.386719 L 196.09375 140.386719 Z M 140.324219 168.269531 L 168.210938 168.269531 L 168.210938 140.386719 L 140.324219 140.386719 Z M 84.554688 168.269531 L 112.441406 168.269531 L 112.441406 140.386719 L 84.554688 140.386719 Z M 28.785156 168.269531 L 56.667969 168.269531 L 56.667969 140.386719 L 28.785156 140.386719 Z M 28.785156 168.269531 L 0.898438 168.269531 L 0.898438 196.15625 L 28.785156 196.15625 Z M 84.554688 168.269531 L 56.667969 168.269531 L 56.667969 196.15625 L 84.554688 196.15625 Z M 140.324219 168.269531 L 112.441406 168.269531 L 112.441406 196.15625 L 140.324219 196.15625 Z M 196.09375 168.269531 L 168.210938 168.269531 L 168.210938 196.15625 L 196.09375 196.15625 Z M 196.09375 224.039062 L 223.980469 224.039062 L 223.980469 196.15625 L 196.09375 196.15625 Z M 140.324219 224.039062 L 168.210938 224.039062 L 168.210938 196.15625 L 140.324219 196.15625 Z M 84.527344 224.039062 L 112.414062 224.039062 L 112.414062 196.15625 L 84.527344 196.15625 Z M 28.785156 224.039062 L 56.667969 224.039062 L 56.667969 196.15625 L 28.785156 196.15625 Z M 28.785156 224.039062 " fill-opacity="1" fill-rule="nonzero"/></g><g clip-path="url(#92abacceea)"><path fill="#010101" d="M 0 0.0585938 L 0 224.941406 L 224.878906 224.941406 L 224.878906 0.0585938 Z M 223.980469 56.730469 L 196.09375 56.730469 L 196.09375 84.613281 L 223.980469 84.613281 L 223.980469 112.5 L 196.09375 112.5 L 196.09375 140.386719 L 223.980469 140.386719 L 223.980469 168.269531 L 196.09375 168.269531 L 196.09375 196.15625 L 223.980469 196.15625 L 223.980469 224.039062 L 196.09375 224.039062 L 196.09375 196.15625 L 168.210938 196.15625 L 168.210938 224.039062 L 140.324219 224.039062 L 140.324219 196.15625 L 112.441406 196.15625 L 112.441406 224.039062 L 84.554688 224.039062 L 84.554688 196.15625 L 56.667969 196.15625 L 56.667969 224.039062 L 28.785156 224.039062 L 28.785156 196.15625 L 0.898438 196.15625 L 0.898438 168.269531 L 28.785156 168.269531 L 28.785156 140.386719 L 0.898438 140.386719 L 0.898438 112.5 L 28.785156 112.5 L 28.785156 84.613281 L 0.898438 84.613281 L 0.898438 56.730469 L 28.785156 56.730469 L 28.785156 28.84375 L 0.898438 28.84375 L 0.898438 0.960938 L 28.785156 0.960938 L 28.785156 28.84375 L 56.667969 28.84375 L 56.667969 0.960938 L 84.554688 0.960938 L 84.554688 28.84375 L 112.441406 28.84375 L 112.441406 0.960938 L 140.324219 0.960938 L 140.324219 28.84375 L 168.210938 28.84375 L 168.210938 0.960938 L 196.09375 0.960938 L 196.09375 28.84375 L 223.980469 28.84375 Z M 196.09375 28.84375 L 196.09375 56.730469 L 168.210938 56.730469 L 168.210938 28.84375 Z M 112.441406 56.730469 L 112.441406 28.84375 L 140.324219 28.84375 L 140.324219 56.730469 Z M 56.667969 56.730469 L 56.667969 28.84375 L 84.554688 28.84375 L 84.554688 56.730469 Z M 56.667969 84.613281 L 28.785156 84.613281 L 28.785156 56.730469 L 56.667969 56.730469 Z M 84.554688 84.613281 L 84.554688 56.730469 L 112.441406 56.730469 L 112.441406 84.613281 Z M 140.324219 56.730469 L 168.210938 56.730469 L 168.210938 84.613281 L 140.324219 84.613281 Z M 168.210938 84.613281 L 196.09375 84.613281 L 196.09375 112.5 L 168.210938 112.5 Z M 112.441406 84.613281 L 140.324219 84.613281 L 140.324219 112.5 L 112.441406 112.5 Z M 84.554688 112.5 L 56.667969 112.5 L 56.667969 84.613281 L 84.554688 84.613281 Z M 56.667969 140.386719 L 28.785156 140.386719 L 28.785156 112.5 L 56.667969 112.5 Z M 112.441406 112.5 L 112.441406 140.386719 L 84.554688 140.386719 L 84.554688 112.5 Z M 140.324219 112.5 L 168.210938 112.5 L 168.210938 140.386719 L 140.324219 140.386719 Z M 168.210938 140.386719 L 196.09375 140.386719 L 196.09375 168.269531 L 168.210938 168.269531 Z M 140.324219 140.386719 L 140.324219 168.269531 L 112.441406 168.269531 L 112.441406 140.386719 Z M 84.554688 140.386719 L 84.554688 168.269531 L 56.667969 168.269531 L 56.667969 140.386719 Z M 56.667969 168.269531 L 56.667969 196.15625 L 28.785156 196.15625 L 28.785156 168.269531 Z M 112.441406 168.269531 L 112.441406 196.15625 L 84.554688 196.15625 L 84.554688 168.269531 Z M 168.210938 168.269531 L 168.210938 196.15625 L 140.324219 196.15625 L 140.324219 168.269531 Z M 168.210938 168.269531 " fill-opacity="1" fill-rule="nonzero"/></g></svg>